<svg width="35" height="35" viewBox="0 0 35 35" fill="none" xmlns="http://www.w3.org/2000/svg">
<g clip-path="url(#clip0_130_1377)">
<path d="M17.5 35C27.165 35 35 27.165 35 17.5C35 7.83502 27.165 0 17.5 0C7.83502 0 0 7.83502 0 17.5C0 27.165 7.83502 35 17.5 35Z" fill="#3A559F"/>
<path d="M23.0443 15.4278L22.6923 18.4764C22.6777 18.6155 22.6125 18.7444 22.5092 18.8386C22.4058 18.9329 22.2714 18.9858 22.1315 18.9875H18.9497L18.9338 28.0259C18.9349 28.133 18.8938 28.2362 18.8194 28.3132C18.7449 28.3902 18.6432 28.4349 18.5361 28.4375H15.3125C15.2589 28.4375 15.2059 28.4268 15.1565 28.4058C15.1072 28.3848 15.0626 28.3541 15.0255 28.3154C14.9884 28.2768 14.9594 28.2311 14.9404 28.181C14.9213 28.1309 14.9126 28.0774 14.9148 28.0239V18.9875H12.5284C12.4535 18.9867 12.3794 18.9712 12.3105 18.9418C12.2415 18.9124 12.179 18.8697 12.1266 18.8161C12.0741 18.7626 12.0328 18.6992 12.0048 18.6297C11.9768 18.5601 11.9629 18.4857 11.9636 18.4108L11.9517 15.3622C11.9507 15.287 11.9644 15.2123 11.9923 15.1424C12.0201 15.0725 12.0614 15.0088 12.1138 14.9549C12.1663 14.901 12.2288 14.8579 12.2979 14.8282C12.367 14.7984 12.4413 14.7826 12.5165 14.7815H14.9148V11.8384C14.9148 8.42187 16.9432 6.5625 19.9182 6.5625H22.3563C22.4316 6.56328 22.5061 6.57893 22.5755 6.60856C22.6448 6.63819 22.7076 6.68121 22.7602 6.73516C22.8129 6.78911 22.8544 6.85292 22.8823 6.92294C22.9102 6.99296 22.9241 7.0678 22.923 7.14318V9.70852C22.9241 9.7839 22.9102 9.85875 22.8823 9.92876C22.8544 9.99878 22.8129 10.0626 22.7602 10.1165C22.7076 10.1705 22.6448 10.2135 22.5755 10.2431C22.5061 10.2728 22.4316 10.2884 22.3563 10.2892H20.8608C19.244 10.2892 18.9298 11.0847 18.9298 12.2341V14.7815H22.4835C22.5644 14.7825 22.644 14.8007 22.7174 14.8347C22.7907 14.8687 22.856 14.9178 22.9089 14.9789C22.9619 15.0399 23.0014 15.1115 23.0247 15.1889C23.048 15.2662 23.0547 15.3477 23.0443 15.4278Z" fill="white"/>
</g>
<defs>
<clipPath id="clip0_130_1377">
<rect width="35" height="35" fill="white"/>
</clipPath>
</defs>
</svg>
