<svg width="35" height="35" viewBox="0 0 35 35" fill="none" xmlns="http://www.w3.org/2000/svg">
<g clip-path="url(#clip0_130_1427)">
<path d="M35 17.5C35 7.83502 27.165 0 17.5 0C7.83502 0 0 7.83502 0 17.5C0 27.165 7.83502 35 17.5 35C27.165 35 35 27.165 35 17.5Z" fill="url(#paint0_linear_130_1427)"/>
<path opacity="0.1" d="M30.6709 5.98662C28.1195 10.6702 24.5113 15.5011 20.0028 20.0096C15.4942 24.5182 10.6633 28.1195 5.98665 30.6708C5.69344 30.416 5.40869 30.1504 5.13237 29.8741C3.46217 28.2597 2.1301 26.3289 1.21384 24.1943C0.297568 22.0597 -0.184561 19.7641 -0.204437 17.4412C-0.224314 15.1184 0.218459 12.8149 1.09806 10.6649C1.97767 8.51496 3.2765 6.56165 4.91883 4.91886C6.56115 3.27608 8.5141 1.9767 10.6638 1.0965C12.8135 0.216291 15.1169 -0.227125 17.4398 -0.207896C19.7626 -0.188668 22.0584 0.292819 24.1932 1.20849C26.3281 2.12416 28.2592 3.45569 29.8741 5.12544C30.1505 5.40176 30.416 5.68882 30.6709 5.98662Z" fill="white"/>
<path d="M21.6443 8.28906H13.3549C12.0113 8.28906 10.7228 8.82278 9.7728 9.7728C8.82278 10.7228 8.28906 12.0113 8.28906 13.3549V21.6443C8.28906 22.9879 8.82278 24.2764 9.7728 25.2264C10.7228 26.1764 12.0113 26.7101 13.3549 26.7101H21.6443C22.9879 26.7101 24.2764 26.1764 25.2264 25.2264C26.1764 24.2764 26.7101 22.9879 26.7101 21.6443V13.3549C26.7101 12.0113 26.1764 10.7228 25.2264 9.7728C24.2764 8.82278 22.9879 8.28906 21.6443 8.28906ZM25.0983 20.9167C25.0983 22.0257 24.6577 23.0893 23.8735 23.8735C23.0893 24.6577 22.0257 25.0983 20.9167 25.0983H14.0825C12.9735 25.0983 11.9099 24.6577 11.1257 23.8735C10.3415 23.0893 9.9009 22.0257 9.9009 20.9167V14.0825C9.9009 12.9735 10.3415 11.9099 11.1257 11.1257C11.9099 10.3415 12.9735 9.9009 14.0825 9.9009H20.9167C22.0257 9.9009 23.0893 10.3415 23.8735 11.1257C24.6577 11.9099 25.0983 12.9735 25.0983 14.0825V20.9167Z" fill="white"/>
<path d="M20.8591 14.1748L20.8153 14.131L20.7785 14.0942C19.9078 13.2266 18.7287 12.7397 17.4995 12.7402C16.8788 12.7445 16.2651 12.8709 15.6933 13.1124C15.1215 13.3539 14.6028 13.7057 14.167 14.1477C13.7312 14.5897 13.3868 15.1133 13.1534 15.6884C12.92 16.2636 12.8022 16.8791 12.8068 17.4998C12.8058 18.7594 13.3024 19.9685 14.1883 20.8639C14.6223 21.3032 15.1394 21.6516 15.7095 21.8888C16.2796 22.126 16.8913 22.2473 17.5087 22.2455C18.4349 22.2261 19.3355 21.9375 20.1005 21.4151C20.8656 20.8927 21.4621 20.1589 21.8172 19.3033C22.1724 18.4477 22.271 17.5072 22.1008 16.5965C21.9307 15.6859 21.4992 14.8444 20.8591 14.1748ZM17.4995 20.6221C16.8802 20.6308 16.2723 20.4551 15.7531 20.1173C15.2339 19.7796 14.8269 19.295 14.5838 18.7253C14.3408 18.1556 14.2727 17.5264 14.3882 16.9179C14.5037 16.3094 14.7975 15.7489 15.2324 15.3079C15.6673 14.8668 16.2235 14.5651 16.8304 14.441C17.4372 14.3169 18.0672 14.3761 18.6403 14.6111C19.2134 14.8461 19.7037 15.2462 20.0487 15.7606C20.3938 16.275 20.5781 16.8804 20.5782 17.4998C20.5812 17.907 20.5039 18.3108 20.3508 18.6881C20.1977 19.0655 19.9718 19.4089 19.6859 19.6989C19.4 19.9889 19.0597 20.2197 18.6846 20.3781C18.3094 20.5365 17.9067 20.6194 17.4995 20.6221Z" fill="white"/>
<path d="M23.5855 12.5214C23.5867 12.6691 23.5587 12.8157 23.5032 12.9526C23.4477 13.0896 23.3658 13.2142 23.2621 13.3194C23.1583 13.4247 23.0349 13.5084 22.8987 13.5659C22.7626 13.6233 22.6164 13.6533 22.4687 13.6543C22.3222 13.6542 22.1771 13.625 22.0419 13.5685C21.9068 13.512 21.7841 13.4292 21.6812 13.325C21.5252 13.1667 21.4191 12.9661 21.376 12.7481C21.3329 12.5301 21.3548 12.3042 21.4389 12.0985C21.523 11.8928 21.6656 11.7163 21.8491 11.5909C22.0326 11.4655 22.2488 11.3967 22.471 11.3931C22.731 11.393 22.9829 11.4843 23.1825 11.651L23.2055 11.674C23.2427 11.7042 23.2766 11.7382 23.3068 11.7753L23.3322 11.8029C23.497 12.006 23.5865 12.2598 23.5855 12.5214Z" fill="white"/>
</g>
<defs>
<linearGradient id="paint0_linear_130_1427" x1="5.12566" y1="5.12566" x2="29.8743" y2="29.8743" gradientUnits="userSpaceOnUse">
<stop stop-color="#FAE100"/>
<stop offset="0.15" stop-color="#FCB720"/>
<stop offset="0.3" stop-color="#FF7950"/>
<stop offset="0.5" stop-color="#FF1C74"/>
<stop offset="1" stop-color="#6C1CD1"/>
</linearGradient>
<clipPath id="clip0_130_1427">
<rect width="35" height="35" fill="white"/>
</clipPath>
</defs>
</svg>
